# xmcd
#
# Track frame offsets:
# 150
# 14907
# 26077
# 37285
# 44397
# 52120
# 62695
# 72522
# 77637
# 89510
# 106130
# 113882
# 123042
# 132875
# 140700
# 151992
# 160465
#
# Disc length: 2332 seconds
#
#
# Revision: 0
# Processed by: cddbd v1.5.2PL0 Copyright (c) Steve Scherf et al.
# Submitted via: FreeRIP 2.944 
#
DISCID=f8091a11
DTITLE=Sidney Matos e Bia Bedran - Cantos do Brasil
DYEAR=1900
DGENRE=
TTITLE0=Abertura - Sou feliz
TTITLE1=O Norte
TTITLE2=A canoa
TTITLE3=Ervas, peixes, frutas e rios
TTITLE4=Carimbó
TTITLE5=O jegue
TTITLE6=O repentista
TTITLE7=Ciranda
TTITLE8=Tema da viagem
TTITLE9=Samba do Sudeste
TTITLE10=Vida marvada
TTITLE11=O trem
TTITLE12=Chegando no Sul
TTITLE13=Prenda minha
TTITLE14=A chalana
TTITLE15=Centro-Oeste brasilero
TTITLE16=Final - Sou feliz
EXTD=
EXTT0=
EXTT1=
EXTT2=
EXTT3=
EXTT4=
EXTT5=
EXTT6=
EXTT7=
EXTT8=
EXTT9=
EXTT10=
EXTT11=
EXTT12=
EXTT13=
EXTT14=
EXTT15=
EXTT16=
PLAYORDER=
